<svg width="31" height="30" viewBox="0 0 31 30" fill="none" xmlns="http://www.w3.org/2000/svg">
<path d="M18.9359 28.2797H10.9766V18.4359H7.68594V11.5641H10.9766C11.0141 8.9672 12.0453 6.52032 13.8828 4.67345C15.7578 2.78907 18.2516 1.73907 20.9141 1.72032H23.3141V9.68907H20.9609C20.6891 9.68907 20.4266 9.74532 20.1828 9.84845C19.9297 9.95157 19.7141 10.1016 19.5266 10.2891C19.3391 10.4766 19.1891 10.7016 19.0859 10.9547C19.0016 11.1516 18.9547 11.3578 18.9359 11.5734H22.2078V18.4453H18.9266V28.2891L18.9359 28.2797ZM13.4703 25.7859H16.4328V15.9422H19.7141V14.0672H16.4328V11.7328C16.4328 11.1422 16.5453 10.5516 16.7703 9.99845C17.0047 9.44532 17.3328 8.94845 17.7453 8.52657C18.1672 8.1047 18.6641 7.7672 19.2172 7.5422C19.7234 7.33595 20.2578 7.21407 20.8016 7.19532V4.23282C18.8516 4.27032 17.0234 5.05782 15.6359 6.44532C14.2297 7.86095 13.4516 9.73595 13.4516 11.7328V14.0672H10.1609V15.9422H13.4516V25.7859H13.4703Z" fill="#BFDED4"/>
</svg>
