<svg width="31" height="30" viewBox="0 0 31 30" fill="none" xmlns="http://www.w3.org/2000/svg">
<path fill-rule="evenodd" clip-rule="evenodd" d="M4.96912 7.33832L4.96875 7.35235V22.6542C4.96875 23.5297 5.18404 24.1033 5.44273 24.4913C5.70664 24.8871 6.06746 25.1667 6.46631 25.3661C6.87005 25.568 7.28893 25.6751 7.61741 25.7299C7.77869 25.7567 7.91036 25.7697 7.99681 25.7759C8.03983 25.7789 8.071 25.7803 8.08832 25.7809L8.10237 25.7812H23.4042C24.2797 25.7812 24.8533 25.566 25.2413 25.3073C25.6371 25.0434 25.9167 24.6825 26.1161 24.2837C26.318 23.8799 26.4251 23.4611 26.4799 23.1326C26.5067 22.9713 26.5197 22.8396 26.5259 22.7532C26.5289 22.7102 26.5303 22.679 26.5309 22.6617L26.5312 22.6476V7.34583C26.5312 6.47029 26.316 5.89674 26.0573 5.50871C25.7934 5.11285 25.4325 4.83334 25.0337 4.63392C24.6299 4.43205 24.2111 4.32488 23.8826 4.27013C23.7213 4.24325 23.5896 4.2303 23.5032 4.22412C23.4602 4.22105 23.429 4.2197 23.4117 4.21912L23.3976 4.21875H8.09583C7.22029 4.21875 6.64674 4.43404 6.25871 4.69273C5.86285 4.95664 5.58334 5.31746 5.38392 5.71631C5.18205 6.12005 5.07488 6.53893 5.02013 6.86741C4.99325 7.02869 4.9803 7.16036 4.97412 7.24681C4.97105 7.28983 4.9697 7.321 4.96912 7.33832ZM23.4042 2.96875V1.71875H8.09583C6.78283 1.71875 5.71498 2.05059 4.87196 2.61261C4.03676 3.1694 3.49556 3.90285 3.14785 4.59827C2.80259 5.2888 2.63619 5.9642 2.55415 6.45641C2.51264 6.70549 2.4914 6.91578 2.48048 7.0687C2.475 7.14537 2.47207 7.20823 2.47051 7.25503C2.46973 7.27845 2.46929 7.29791 2.46905 7.31312L2.46881 7.33274L2.46876 7.34011L2.46875 7.34318L2.46875 7.34456C2.46875 7.34521 2.46875 7.34583 3.71875 7.34583H2.46875V22.6542C2.46875 23.9672 2.80059 25.035 3.36261 25.878C3.9194 26.7132 4.65285 27.2544 5.34827 27.6021C6.0388 27.9474 6.7142 28.1138 7.20641 28.1958C7.45548 28.2374 7.66578 28.2586 7.8187 28.2695C7.89537 28.275 7.95823 28.2779 8.00503 28.2795C8.02845 28.2803 8.04791 28.2807 8.06312 28.281L8.08274 28.2812L8.09011 28.2812L8.09318 28.2812L8.09456 28.2812C8.0952 28.2812 8.09583 28.2812 8.09583 27.0312V28.2812H23.4042C24.7172 28.2812 25.785 27.9494 26.628 27.3874C27.4632 26.8306 28.0044 26.0971 28.3521 25.4017C28.6974 24.7112 28.8638 24.0358 28.9458 23.5436C28.9874 23.2945 29.0086 23.0842 29.0195 22.9313C29.025 22.8546 29.0279 22.7918 29.0295 22.745C29.0303 22.7215 29.0307 22.7021 29.031 22.6869L29.0312 22.6673L29.0312 22.6599L29.0312 22.6568L29.0312 22.6554C29.0312 22.6548 29.0312 22.6542 27.7812 22.6542H29.0312V7.34583C29.0312 6.03283 28.6994 4.96498 28.1374 4.12196C27.5806 3.28676 26.8471 2.74556 26.1517 2.39785C25.4612 2.05259 24.7858 1.88619 24.2936 1.80415C24.0445 1.76264 23.8342 1.7414 23.6813 1.73048C23.6046 1.725 23.5418 1.72207 23.495 1.72051C23.4715 1.71973 23.4521 1.71929 23.4369 1.71905L23.4173 1.71881L23.4099 1.71876L23.4068 1.71875L23.4054 1.71875C23.4048 1.71875 23.4042 1.71875 23.4042 2.96875ZM13.18 8.79558C13.9948 8.45809 14.8681 8.28438 15.75 8.28438C16.6319 8.28438 17.5052 8.45809 18.32 8.79558C19.1347 9.13307 19.8751 9.62774 20.4987 10.2513C21.1223 10.8749 21.6169 11.6153 21.9544 12.43C22.2919 13.2448 22.4656 14.1181 22.4656 15C22.4656 15.8819 22.2919 16.7552 21.9544 17.57C21.6169 18.3847 21.1223 19.1251 20.4987 19.7487C19.8751 20.3723 19.1347 20.8669 18.32 21.2044C17.5052 21.5419 16.6319 21.7156 15.75 21.7156C14.8681 21.7156 13.9948 21.5419 13.18 21.2044C12.3653 20.8669 11.6249 20.3723 11.0013 19.7487C10.3777 19.1251 9.88306 18.3847 9.54557 17.57C9.20808 16.7552 9.03437 15.8819 9.03437 15C9.03437 14.1181 9.20808 13.2448 9.54557 12.43C9.88306 11.6153 10.3777 10.8749 11.0013 10.2513C11.6249 9.62774 12.3653 9.13307 13.18 8.79558ZM15.75 10.7844C15.1964 10.7844 14.6482 10.8934 14.1367 11.1053C13.6253 11.3171 13.1606 11.6277 12.7691 12.0191C12.3776 12.4106 12.0671 12.8753 11.8553 13.3868C11.6434 13.8982 11.5344 14.4464 11.5344 15C11.5344 15.5536 11.6434 16.1018 11.8553 16.6133C12.0671 17.1247 12.3776 17.5894 12.7691 17.9809C13.1606 18.3724 13.6253 18.6829 14.1367 18.8947C14.6482 19.1066 15.1964 19.2156 15.75 19.2156C16.3036 19.2156 16.8518 19.1066 17.3632 18.8947C17.8747 18.6829 18.3394 18.3724 18.7309 17.9809C19.1223 17.5894 19.4329 17.1247 19.6447 16.6133C19.8566 16.1018 19.9656 15.5536 19.9656 15C19.9656 14.4464 19.8566 13.8982 19.6447 13.3868C19.4329 12.8753 19.1223 12.4106 18.7309 12.0191C18.3394 11.6277 17.8747 11.3171 17.3632 11.1053C16.8518 10.8934 16.3036 10.7844 15.75 10.7844ZM21.6956 9.05446C21.3883 8.74717 21.2156 8.3304 21.2156 7.89583C21.2156 7.46126 21.3883 7.0445 21.6956 6.73721C22.0028 6.42992 22.4196 6.25729 22.8542 6.25729C23.2887 6.25729 23.7055 6.42992 24.0128 6.73721C24.3201 7.0445 24.4927 7.46126 24.4927 7.89583C24.4927 8.3304 24.3201 8.74717 24.0128 9.05446C23.7055 9.36174 23.2887 9.53437 22.8542 9.53437C22.4196 9.53437 22.0028 9.36174 21.6956 9.05446Z" fill="#BFDED4"/>
</svg>
