<svg width="256" height="152" viewBox="0 0 256 152" fill="none" xmlns="http://www.w3.org/2000/svg">
<path d="M156.876 2.37381C164.021 3.38414 171.018 5.17884 177.932 7.3034C190.001 11.0201 201.39 16.1834 212.101 22.8817C212.847 23.344 213.842 23.6375 214.719 23.6375C227.3 23.6895 239.876 23.6713 252.447 23.6817C253.46 23.6817 254.468 23.7882 255.478 23.8453C255.478 24.0921 255.514 24.1959 255.473 24.2531C254.886 25.1569 254.291 26.0478 253.702 26.949C249.434 33.4941 245.788 40.3405 243.635 47.9089C243.401 48.7218 243.352 49.4023 243.902 50.1997C255.102 66.2819 258.675 83.938 253.995 102.971C249.891 119.663 240.323 132.678 225.784 141.893C215.392 148.482 203.912 151.62 191.648 151.687C186.495 151.719 181.368 151.025 176.335 149.721C164.07 146.54 153.557 140.426 144.892 131.167C143.749 129.951 142.674 128.681 141.456 127.307C136.874 134.135 132.366 140.852 127.748 147.745C123.148 140.872 118.701 134.221 114.265 127.595C113.959 127.756 113.871 127.774 113.811 127.832C113.71 127.915 113.624 128.016 113.543 128.112C103.063 140.488 89.8797 148.075 73.8183 150.612C64.8837 152.028 56.0349 151.519 47.3575 149.127C35.0594 145.747 24.6081 139.26 16.1644 129.686C7.91294 120.326 2.78076 109.459 0.8536 97.1035C-1.35147 85.5717 1.33409 74.4528 2.00418 71.7543C3.94693 63.9106 7.33375 56.7084 11.9828 50.0854C12.3101 49.6153 12.4244 48.7842 12.2685 48.2232C10.3725 41.2703 7.10519 34.946 3.27944 28.8892C2.30806 27.349 1.14449 25.9231 0.0692289 24.4453C0.0692289 24.2765 0.0692289 24.1024 0.0692289 23.931C0.284801 23.957 0.497776 23.9986 0.708154 23.9986C13.5802 24.0038 26.4496 24.0089 39.3215 23.983C39.8826 23.983 40.5059 23.7518 40.9838 23.4453C50.0274 17.6431 59.6633 13.0459 69.7874 9.46691C77.0882 6.89043 84.5424 4.88016 92.1445 3.40752C99.5051 1.98422 106.905 0.981682 114.382 0.488204C132.612 -0.914314 147.183 1.01545 156.876 2.37381ZM140.739 87.3846C140.739 115.651 163.673 138.743 191.838 138.634C220.109 138.532 242.939 116.089 242.918 87.5118C242.897 58.0616 219.007 35.9226 190.742 36.4965C162.837 37.0757 140.994 59.568 140.739 87.3846ZM64.0916 36.3018C36.597 36.0628 12.6244 59.0096 13.1049 88.2391C13.5516 115.497 36.0178 138.605 64.663 138.358C92.6718 138.119 115.185 115.248 115.237 87.5508C115.281 59.0953 92.4926 36.3018 64.0916 36.3018ZM66.6265 22.9674C82.1581 23.9154 95.8015 29.3281 107.328 39.8106C118.831 50.2724 125.571 63.3236 128.02 78.6708C130.54 63.5054 137.103 50.5763 148.391 40.2184C159.697 29.8502 173.158 24.4089 188.435 23.2583C170.306 15.1991 151.191 11.7759 131.514 11.3967C109.151 10.9577 87.3993 14.2537 66.6265 22.9674Z" fill="#BFDED4"/>
<path d="M191.733 55.1367C209.226 55.1081 223.394 69.2008 223.394 86.6752C223.394 104.217 209.467 117.777 193.037 118.403C174.688 119.107 160.005 104.487 160.01 86.7531C160.026 68.8164 174.812 54.8406 191.733 55.1367ZM212.366 86.7531C212.358 75.3511 203.141 66.0841 191.816 66.0841C180.363 66.0841 171.038 75.3018 170.992 86.67C170.95 97.9888 180.321 107.406 191.668 107.438C203.034 107.482 212.371 98.1343 212.366 86.7531Z" fill="#BFDED4"/>
<path d="M63.4156 55.1369C80.8978 55.1187 95.0866 69.2374 95.0424 86.7091C94.9931 104.394 81.0536 117.658 64.9117 118.393C46.4893 119.235 31.6252 104.55 31.659 86.7195C31.6954 68.6556 46.5828 54.8356 63.4156 55.1369ZM84.0249 86.6832C83.9911 75.2111 74.7137 66.0662 63.1325 66.0869C51.9617 66.1077 42.6012 75.5357 42.6272 86.7481C42.6558 98.0903 52.0059 107.417 63.3845 107.448C74.6929 107.474 84.0534 98.0566 84.0249 86.6832Z" fill="#BFDED4"/>
<path d="M191.748 76.2573C197.545 76.2521 202.298 81.0077 202.244 86.771C202.187 92.5473 197.514 97.2276 191.813 97.2302C185.943 97.2302 181.224 92.5915 181.237 86.8437C181.247 80.8804 185.832 76.2625 191.748 76.2573Z" fill="#BFDED4"/>
<path d="M63.3613 76.165C69.2467 76.1598 73.9763 80.8609 73.9997 86.7281C74.0231 92.5459 69.2493 97.3223 63.3925 97.3353C57.3954 97.3483 52.7697 92.7147 52.7749 86.6865C52.7749 80.7674 57.3902 76.1728 63.3613 76.165Z" fill="#BFDED4"/>
</svg>
