<svg width="31" height="30" viewBox="0 0 31 30" fill="none" xmlns="http://www.w3.org/2000/svg">
<path fill-rule="evenodd" clip-rule="evenodd" d="M4.34375 9.5409L4.34412 9.52687C4.3447 9.50956 4.34605 9.47838 4.34912 9.43537C4.3553 9.34891 4.36825 9.21725 4.39513 9.05597C4.44988 8.72748 4.55705 8.3086 4.75892 7.90486C4.95834 7.50601 5.23785 7.14519 5.63371 6.88128C6.02174 6.6226 6.59529 6.4073 7.47083 6.4073H22.7726L22.7867 6.40768C22.804 6.40825 22.8352 6.4096 22.8782 6.41267C22.9646 6.41885 23.0963 6.43181 23.2576 6.45869C23.5861 6.51343 24.0049 6.6206 24.4087 6.82247C24.8075 7.0219 25.1684 7.3014 25.4323 7.69726C25.691 8.08529 25.9062 8.65885 25.9062 9.53439V20.4591L25.9059 20.4732C25.9053 20.4905 25.9039 20.5216 25.9009 20.5647C25.8947 20.6511 25.8817 20.7828 25.8549 20.9441C25.8001 21.2725 25.693 21.6914 25.4911 22.0952C25.2917 22.494 25.0121 22.8548 24.6163 23.1187C24.2283 23.3774 23.6547 23.5927 22.7792 23.5927H7.4773L7.46332 23.5923C7.446 23.5918 7.41483 23.5904 7.37181 23.5873C7.28536 23.5812 7.15369 23.5682 6.99241 23.5413C6.66393 23.4866 6.24505 23.3794 5.84131 23.1775C5.44246 22.9781 5.08164 22.6986 4.81773 22.3028C4.55904 21.9147 4.34375 21.3412 4.34375 20.4656V9.5409ZM22.7792 3.9073V5.1573C22.7792 3.9073 22.7798 3.9073 22.7804 3.9073L22.7818 3.90731L22.7849 3.90731L22.7923 3.90736L22.8119 3.9076C22.8271 3.90784 22.8465 3.90828 22.87 3.90907C22.9168 3.91063 22.9796 3.91355 23.0563 3.91903C23.2092 3.92995 23.4195 3.95119 23.6686 3.9927C24.1608 4.07474 24.8362 4.24114 25.5267 4.5864C26.2221 4.93412 26.9556 5.47531 27.5124 6.31051C28.0744 7.15353 28.4062 8.22139 28.4062 9.53439V20.4656H27.1562C28.4062 20.4656 28.4062 20.4663 28.4062 20.4669L28.4062 20.4683L28.4062 20.4714L28.4062 20.4787L28.406 20.4984C28.4058 20.5055 28.4057 20.5137 28.4055 20.5228C28.4052 20.5329 28.4049 20.5441 28.4045 20.5564C28.4029 20.6032 28.4 20.6661 28.3945 20.7428C28.3836 20.8957 28.3624 21.106 28.3208 21.3551C28.2388 21.8473 28.0724 22.5227 27.7271 23.2132C27.3794 23.9086 26.8382 24.6421 26.003 25.1989C25.16 25.7609 24.0922 26.0927 22.7792 26.0927H7.47083V24.8427C7.47083 26.0927 7.47021 26.0927 7.46956 26.0927L7.46818 26.0927L7.46511 26.0927L7.45774 26.0927L7.43812 26.0924C7.42291 26.0922 7.40345 26.0917 7.38003 26.091C7.33323 26.0894 7.27037 26.0865 7.1937 26.081C7.04078 26.0701 6.83049 26.0488 6.58142 26.0073C6.0892 25.9253 5.4138 25.7589 4.72327 25.4136C4.02785 25.0659 3.2944 24.5247 2.73761 23.6895C2.17559 22.8465 1.84375 21.7786 1.84375 20.4656V9.53439H3.09375C1.84375 9.53439 1.84375 9.53376 1.84375 9.53311L1.84375 9.53174L1.84376 9.52867L1.84381 9.52129L1.84405 9.50167C1.84429 9.48646 1.84473 9.46701 1.84551 9.44359C1.84707 9.39679 1.85 9.33392 1.85548 9.25725C1.8664 9.10433 1.88764 8.89404 1.92915 8.64497C2.01119 8.15275 2.17759 7.47736 2.52285 6.78683C2.87056 6.0914 3.41176 5.35796 4.24696 4.80116C5.08998 4.23915 6.15783 3.9073 7.47083 3.9073H22.7792ZM16.707 15L11.9979 17.3546V12.6455L16.707 15ZM12.2114 9.95715C10.9647 9.3338 9.49792 10.2404 9.49792 11.6342V18.3658C9.49792 19.7597 10.9648 20.6662 12.2114 20.0429L18.9431 16.6771C20.325 15.9861 20.325 14.0139 18.9431 13.323L12.2114 9.95715Z" fill="#BFDED4"/>
</svg>
